<svg width="20" height="21" viewBox="0 0 20 21" fill="none" xmlns="http://www.w3.org/2000/svg">
<path fill-rule="evenodd" clip-rule="evenodd" d="M10.0336 0.838379C10.5859 0.838379 11.0336 1.28609 11.0336 1.83838V9.39282H18.4236C18.9759 9.39282 19.4236 9.84054 19.4236 10.3928C19.4236 10.9451 18.9759 11.3928 18.4236 11.3928H11.0336V18.9473C11.0336 19.4995 10.5859 19.9473 10.0336 19.9473C9.48136 19.9473 9.03365 19.4995 9.03365 18.9473V11.3928H1.3147C0.762412 11.3928 0.314697 10.9451 0.314697 10.3928C0.314697 9.84054 0.762412 9.39282 1.3147 9.39282H9.03365V1.83838C9.03365 1.28609 9.48136 0.838379 10.0336 0.838379Z" fill="white"/>
<path fill-rule="evenodd" clip-rule="evenodd" d="M8.78365 1.83838C8.78365 1.14802 9.34329 0.588379 10.0336 0.588379C10.724 0.588379 11.2836 1.14802 11.2836 1.83838V9.14282H18.4236C19.1139 9.14282 19.6736 9.70247 19.6736 10.3928C19.6736 11.0832 19.1139 11.6428 18.4236 11.6428H11.2836V18.9473C11.2836 19.6376 10.724 20.1973 10.0336 20.1973C9.34329 20.1973 8.78365 19.6376 8.78365 18.9473V11.6428H1.3147C0.624341 11.6428 0.0646973 11.0832 0.0646973 10.3928C0.0646973 9.70247 0.624341 9.14282 1.3147 9.14282H8.78365V1.83838ZM10.0336 1.08838C9.61943 1.08838 9.28365 1.42417 9.28365 1.83838V9.39282C9.28365 9.53089 9.17172 9.64282 9.03365 9.64282H1.3147C0.900484 9.64282 0.564697 9.97861 0.564697 10.3928C0.564697 10.807 0.900484 11.1428 1.3147 11.1428H9.03365C9.17172 11.1428 9.28365 11.2548 9.28365 11.3928V18.9473C9.28365 19.3615 9.61943 19.6973 10.0336 19.6973C10.4479 19.6973 10.7836 19.3615 10.7836 18.9473V11.3928C10.7836 11.2548 10.8956 11.1428 11.0336 11.1428H18.4236C18.8378 11.1428 19.1736 10.807 19.1736 10.3928C19.1736 9.97861 18.8378 9.64282 18.4236 9.64282H11.0336C10.8956 9.64282 10.7836 9.53089 10.7836 9.39282V1.83838C10.7836 1.42417 10.4479 1.08838 10.0336 1.08838Z" fill="white"/>
</svg>
