<svg width="38" height="41" viewBox="0 0 38 41" fill="none" xmlns="http://www.w3.org/2000/svg">
<path d="M19.1929 5.81876H20.1108C20.0738 5.62804 20.0257 5.44105 19.972 5.25781H19.0411C19.0541 5.29708 19.067 5.33634 19.0782 5.37748C19.1207 5.52333 19.1596 5.67104 19.1929 5.81876ZM19.0615 9.85008H19.935C19.9905 9.66871 20.0387 9.48173 20.0775 9.28913H19.2336C19.1855 9.47799 19.1281 9.66684 19.0615 9.85008Z" fill="#497951"/>
<path d="M36.8041 34.3764C36.2896 35.0739 35.5585 35.474 34.7997 35.8256C33.7634 36.308 32.6844 36.6838 31.5777 36.9531C31.0947 37.069 30.8041 37.2691 30.7171 37.7683C30.6801 37.9815 30.5839 38.1815 30.5209 38.3891C30.0472 39.9522 29.2569 40.4178 27.7301 39.9822C27.2637 39.8494 27.0268 39.4511 26.8658 38.9949C26.7067 38.5461 26.6548 37.9403 26.0145 37.9179C25.3297 37.8917 25.3279 38.5461 25.1706 38.9743C24.7653 40.07 23.1903 40.6702 22.2002 40.07C21.7708 39.812 21.7116 39.3389 21.6635 38.9332C21.5617 38.0656 21.1361 37.83 20.3106 37.8805C18.9893 37.959 17.6586 37.9609 16.3372 37.9104C15.6858 37.8861 15.2953 38.0899 15.0639 38.6882C14.7863 39.4137 14.5254 39.9074 13.4871 39.8961C12.1139 39.8812 11.9066 39.8737 11.4329 38.5106C11.2811 38.0749 11.1904 37.6019 10.5482 37.6337C9.92639 37.6636 9.97081 38.1759 9.82831 38.5517C9.61733 39.1127 9.60252 39.8064 8.76601 39.8774C7.83326 39.9578 7.04486 39.8681 6.51001 38.9051C4.3595 35.0328 2.74754 30.9547 1.90363 26.5924C0.387906 18.7411 0.654407 14.4517 3.46746 7.00049C4.4835 4.30983 6.37306 2.32595 9.0214 1.24894C11.1627 0.377606 13.4039 -0.00383672 15.6876 0.846929C17.7474 1.61355 19.352 3.15615 19.972 5.25782H19.0411C18.1231 2.34278 15.0713 0.731 11.8308 1.41348C8.79932 2.05296 6.62105 3.76758 5.24228 6.30679C5.0165 6.72189 4.81292 7.15755 4.63155 7.61753C4.61675 7.65119 4.60194 7.68671 4.58899 7.72224C4.53347 7.86247 4.4798 8.00458 4.42983 8.14856C2.22195 14.4106 1.80369 17.4565 2.64761 24.113C3.29905 29.2457 4.83513 34.0455 7.37058 38.5331C7.61117 38.9631 7.90543 39.0472 8.34035 39.0491C8.81598 39.0529 8.8715 38.7144 8.98624 38.3984C9.03806 38.2526 9.07692 38.1011 9.13059 37.9571C9.32492 37.4448 9.40635 36.8465 10.1337 36.7829C10.9498 36.7118 11.6605 36.8465 12.0639 37.6673C12.2287 38.0002 12.3656 38.3461 12.5211 38.6826C12.8283 39.3464 13.5056 39.438 13.9628 38.8715C14.0757 38.7294 14.1608 38.5536 14.2293 38.3816C14.6549 37.3214 15.3933 36.9157 16.5445 37.0035C17.8326 37.1008 19.1318 37.0148 20.4254 37.011C21.7875 37.0073 22.2002 37.2896 22.5518 38.6452C22.6906 39.1781 22.9423 39.3053 23.4494 39.3427C24.3526 39.4062 24.384 38.7088 24.5561 38.1572C24.7671 37.4785 25.1299 37.2111 25.8738 37.14C26.9232 37.0409 27.3266 37.701 27.6301 38.4209C27.8929 39.0398 28.2538 39.1239 28.835 39.1351C29.5179 39.1482 29.5345 38.6583 29.6789 38.2395C29.8121 37.858 29.9287 37.471 30.0453 37.0839C30.2045 36.551 30.5617 36.2818 31.0984 36.1771C32.2624 35.9471 33.3507 35.4815 34.4389 35.0253C34.7331 34.9019 34.9978 34.7074 35.4882 34.4213C33.7041 34.3484 32.3642 33.8548 31.2945 32.7067C30.5154 31.8728 30.012 30.8818 29.6196 29.8328C28.8868 27.8751 27.9485 26.0389 26.777 24.3038C24.1471 20.4052 19.9387 19.4609 15.7857 20.667C13.9554 21.198 12.3656 22.189 10.8221 23.2697C9.88013 23.9298 9.70616 23.8905 9.37674 22.7593C9.02881 21.572 8.69013 20.379 8.56243 19.1393C8.31444 16.7366 8.57168 16.4244 8.66237 15.4221C8.70308 14.9734 9.12134 14.2666 9.73577 14.2703C10.7444 14.2778 11.7197 14.0665 12.708 13.9637C13.811 13.8496 14.8918 13.5897 15.9375 13.1129C17.5957 12.3556 18.5821 11.1851 19.0614 9.85009H19.935C19.2724 12.0546 17.5531 13.614 14.9344 14.3993C13.5704 14.807 12.1676 15.0463 10.7425 14.9696C9.94305 14.9285 9.4045 15.2482 9.35453 16.0074C9.2768 17.1742 9.29346 16.4748 9.34713 18.3596C9.38044 19.5582 9.66915 20.7212 9.99857 21.873C10.1429 22.3853 10.2484 22.6546 10.8203 22.217C12.0473 21.2765 13.3909 20.48 14.8696 20.0686C18.4933 19.0589 22.0966 18.8383 25.2594 21.385C27.1952 22.9425 28.4519 25.0704 29.5197 27.3067C30.2119 28.7539 30.5931 30.3377 31.5333 31.6802C32.7344 33.3948 34.387 33.6884 36.1322 33.4041C36.4191 33.3593 36.6467 33.1181 36.8984 33.5444C37.1131 33.909 36.9873 34.1278 36.8041 34.3764Z" fill="#4A7D52"/>
<path d="M15.8265 10.9178C15.4563 11.2637 15.0158 11.4656 14.5162 11.5329C13.8314 11.6489 13.2429 11.4525 12.7487 10.972C12.5859 10.813 12.4841 10.6167 12.6525 10.3998C12.8117 10.1923 13.0412 10.1736 13.2207 10.3269C13.961 10.9589 14.6624 10.8785 15.3601 10.2615C15.5729 10.0745 15.8394 10.0296 15.9986 10.2783C16.1374 10.4952 16.0097 10.7457 15.8265 10.9178Z" fill="#4A7D52"/>
<path d="M12.7969 5.26154H12.7136V5.35503H13.193C13.0708 5.30267 12.9376 5.27088 12.7969 5.26154Z" fill="#3C403F"/>
<path d="M13.3891 6.50308V8.60475C13.3891 8.98245 13.0856 9.2891 12.7136 9.2891H8.42552C8.05168 9.2891 7.74817 8.98245 7.74817 8.60475V6.50308C7.74817 6.12538 8.05168 5.81873 8.42552 5.81873H12.7136C13.0856 5.81873 13.3891 6.12538 13.3891 6.50308Z" fill="#7C99ED"/>
<path d="M16.1948 5.26154C16.0541 5.27088 15.9209 5.30267 15.7987 5.35503H16.278V5.26154H16.1948Z" fill="#3C403F"/>
<path d="M21.2416 6.50308V8.60475C21.2416 8.98245 20.9381 9.2891 20.5661 9.2891H16.2781C15.9042 9.2891 15.6007 8.98245 15.6007 8.60475V6.50308C15.6007 6.12538 15.9042 5.81873 16.2781 5.81873H20.5661C20.9381 5.81873 21.2416 6.12538 21.2416 6.50308Z" fill="#EE7AA2"/>
<path d="M16.3354 5.44482H16.2781V5.63181H16.3354V5.44482Z" fill="#3C403F"/>
<path d="M12.7136 5.63181H12.7007V5.44482L12.7136 5.63181Z" fill="#3C403F"/>
<path d="M31.2947 32.7068C30.5155 31.8728 30.0121 30.8818 29.6198 29.8329C28.8869 27.8752 27.9486 26.039 26.7771 24.3038C24.1473 20.4053 19.9388 19.461 15.7858 20.667C13.9555 21.1981 12.3657 22.1891 10.8223 23.2698C9.88026 23.9299 9.70629 23.8906 9.37687 22.7594C9.02894 21.572 8.63844 20.3828 8.56256 19.1394C8.41265 16.703 8.60698 16.0299 8.6625 15.4222C8.71062 14.908 9.16589 14.2536 9.7359 14.2704C10.7445 14.2985 11.7198 14.0666 12.7081 13.9638C13.8111 13.8497 14.8919 13.5898 15.9376 13.113C17.5958 12.3557 18.5822 11.1852 19.0616 9.85016H16.2781C16.1504 9.85016 16.0264 9.8296 15.9117 9.79407C15.8339 9.76976 15.7599 9.73797 15.6914 9.69871C15.6563 9.68001 15.623 9.65944 15.5897 9.637C15.4583 9.54725 15.3454 9.43319 15.2565 9.30044C15.2343 9.26678 15.214 9.23312 15.1955 9.1976C15.1566 9.12841 15.1251 9.05362 15.1011 8.97509C15.0659 8.85916 15.0455 8.73388 15.0455 8.60487V7.21185C15.0104 7.15389 14.9697 7.09593 14.9271 7.0417C14.916 7.02487 14.9049 7.00991 14.8919 6.99496C14.8327 6.9239 14.7698 6.85846 14.7032 6.81171C14.6902 6.80236 14.6791 6.79489 14.668 6.78741C14.5995 6.7444 14.5311 6.72009 14.4589 6.72009C14.4385 6.72009 14.4182 6.72196 14.3997 6.7257C14.333 6.73505 14.2701 6.7631 14.2146 6.80423H14.2127C14.1942 6.81919 14.1776 6.83228 14.1609 6.84724L14.1517 6.85659C14.0702 6.93138 14.0018 7.03048 13.9444 7.12958V8.60674C13.9444 8.99192 13.7704 9.33783 13.4965 9.56595C13.4058 9.64074 13.304 9.70432 13.193 9.75293C13.156 9.76789 13.119 9.78285 13.0801 9.79407C13.0024 9.81838 12.9228 9.8352 12.8395 9.84455C12.7988 9.84829 12.7562 9.85016 12.7137 9.85016H8.42561C7.84079 9.85016 7.35036 9.43693 7.22636 8.88347C7.21525 8.84233 7.20785 8.79933 7.20415 8.75632L6.264 8.04579C6.06597 7.89434 5.83278 7.79711 5.58849 7.75971L4.63168 7.6176C4.61688 7.65126 4.60207 7.68679 4.58912 7.72231C4.5336 7.86255 4.47993 8.00466 4.42996 8.14863C2.22208 14.4106 1.80382 17.4566 2.64774 24.1131C3.29918 29.2458 4.83526 34.0456 7.37071 38.5331C7.6113 38.9632 7.90556 39.0473 8.34048 39.0492C8.81611 39.0529 8.87163 38.7145 8.98637 38.3985C9.03819 38.2527 9.07706 38.1012 9.13073 37.9572C9.32505 37.4449 9.40648 36.8466 10.1338 36.783C10.95 36.7119 11.6606 36.8466 12.0641 37.6674C12.2288 38.0002 12.3657 38.3461 12.5212 38.6827C12.8284 39.3465 13.5058 39.4381 13.9629 38.8716C14.0758 38.7295 14.1609 38.5537 14.2294 38.3817C14.6551 37.3215 15.3935 36.9157 16.5446 37.0036C17.8327 37.1008 19.1319 37.0148 20.4255 37.0111C21.7876 37.0074 22.2003 37.2897 22.552 38.6453C22.6908 39.1782 22.9425 39.3054 23.4496 39.3428C24.3527 39.4063 24.3842 38.7089 24.5563 38.1573C24.7673 37.4785 25.13 37.2112 25.874 37.1401C26.9233 37.041 27.3268 37.7011 27.6303 38.4209C27.8931 39.0398 28.254 39.124 28.8351 39.1352C29.518 39.1483 29.5346 38.6584 29.679 38.2396C29.8123 37.8581 29.9288 37.4711 30.0454 37.084C30.2046 36.5511 30.5618 36.2819 31.0985 36.1772C32.2626 35.9472 33.3508 35.4816 34.439 35.0254C34.7333 34.9019 34.9979 34.7075 35.4883 34.4214C33.7043 34.3485 32.3644 33.8549 31.2947 32.7068ZM12.6526 10.3999C12.8118 10.1923 13.0412 10.1736 13.2208 10.327C13.961 10.959 14.6625 10.8786 15.3602 10.2615C15.573 10.0745 15.8395 10.0297 15.9987 10.2784C16.1375 10.4952 16.0098 10.7458 15.8265 10.9178C15.4564 11.2637 15.0159 11.4657 14.5162 11.533C13.8315 11.6489 13.243 11.4526 12.7488 10.9721C12.586 10.8131 12.4842 10.6168 12.6526 10.3999Z" fill="#A2CC9C"/>
<path d="M19.0411 5.25785H16.278C16.2502 5.25785 16.2225 5.25972 16.1947 5.26159H12.7969C12.7691 5.25972 12.7413 5.25785 12.7136 5.25785H8.42551C7.95358 5.25785 7.54087 5.52897 7.33545 5.92537L5.24231 6.30681C6.62108 3.7676 8.79935 2.05298 11.8308 1.41351C15.0714 0.731024 18.1232 2.3428 19.0411 5.25785Z" fill="#A2CC9C"/>
<path d="M20.5642 5.25781H16.278C16.2503 5.25781 16.2225 5.25968 16.1947 5.26155H12.7969C12.7691 5.25968 12.7413 5.25781 12.7136 5.25781H8.42552C7.95359 5.25781 7.54089 5.52894 7.33546 5.92534L5.24232 6.30678C5.01654 6.72188 4.81296 7.15754 4.63159 7.61752L5.5884 7.75963C5.83269 7.79702 6.06588 7.89425 6.26391 8.04571L7.20406 8.75624C7.20776 8.79924 7.21516 8.84225 7.22627 8.88338C7.35026 9.43685 7.8407 9.85008 8.42552 9.85008H12.7136C12.7561 9.85008 12.7987 9.84821 12.8394 9.84447C12.9227 9.83512 13.0023 9.81829 13.08 9.79398C13.1189 9.78277 13.1559 9.76781 13.1929 9.75285C13.304 9.7061 13.4057 9.64253 13.4964 9.56587C13.7703 9.33775 13.9443 8.99183 13.9443 8.60665V7.36883C13.9443 7.17811 14.0146 6.98552 14.1516 6.8565L14.1608 6.84716C14.1775 6.8322 14.1941 6.81911 14.2126 6.80415H14.2145C14.27 6.76301 14.3329 6.73497 14.3996 6.72562C14.4181 6.72188 14.4384 6.72001 14.4588 6.72001C14.531 6.72001 14.5994 6.74432 14.6679 6.78732C14.679 6.7948 14.6901 6.80228 14.7031 6.81163C14.7697 6.85837 14.8326 6.92382 14.8919 6.99487C14.9048 7.00983 14.9159 7.02479 14.927 7.04162C15.0047 7.15194 15.0455 7.28469 15.0455 7.42119V8.60478C15.0455 8.7338 15.0658 8.85908 15.101 8.97501C15.125 9.05354 15.1565 9.12646 15.1954 9.19751C15.2139 9.23304 15.2342 9.2667 15.2564 9.30035C15.3453 9.43124 15.46 9.54717 15.5896 9.63692C15.6229 9.65936 15.6562 9.67993 15.6914 9.69862C15.7617 9.73789 15.8339 9.76968 15.9116 9.79398C16.0263 9.82951 16.1503 9.85008 16.278 9.85008H20.5661C21.2453 9.85008 21.7968 9.29287 21.7968 8.60665V6.50311C21.7968 5.81876 21.2416 5.25781 20.5642 5.25781ZM12.7117 9.28913H8.42552C8.05168 9.28913 7.74816 8.98248 7.74816 8.60478V6.50311C7.74816 6.12541 8.05168 5.81876 8.42552 5.81876H12.7136C13.0856 5.81876 13.3891 6.12541 13.3891 6.50311V8.60478C13.3891 8.98061 13.0837 9.28913 12.7117 9.28913ZM21.2416 8.60478C21.2416 8.98061 20.9362 9.28913 20.5642 9.28913H16.278C15.9042 9.28913 15.6007 8.98248 15.6007 8.60478V6.50311C15.6007 6.12541 15.9042 5.81876 16.278 5.81876H20.5661C20.9381 5.81876 21.2416 6.12541 21.2416 6.50311V8.60478Z" fill="#DCE0DC"/>
</svg>
