<svg width="27" height="29" viewBox="0 0 27 29" fill="none" xmlns="http://www.w3.org/2000/svg">
<path fill-rule="evenodd" clip-rule="evenodd" d="M21.104 0.674515C21.4867 0.57198 21.8858 0.545862 22.2785 0.597656C22.6712 0.64945 23.0499 0.778139 23.3929 0.976368C23.7359 1.1746 24.0364 1.43848 24.2774 1.75293C24.5181 2.06708 24.6946 2.42555 24.7968 2.80788C24.7968 2.80779 24.7968 2.80798 24.7968 2.80788C24.7969 2.80815 24.797 2.8087 24.7971 2.80897L25.7639 6.41431C25.8326 6.6705 25.7967 6.94349 25.6641 7.17321C25.5315 7.40294 25.3131 7.57057 25.0569 7.63923L10.1172 11.6431H25.5878C26.1401 11.6431 26.5878 12.0908 26.5878 12.6431V25.1991C26.5878 25.9986 26.2702 26.7655 25.7048 27.3308C25.1394 27.8962 24.3726 28.2138 23.573 28.2138H4.54158C3.74202 28.2138 2.9752 27.8962 2.40982 27.3308C1.84447 26.7655 1.52685 25.9988 1.52682 25.1992C1.52682 25.1992 1.52682 25.1993 1.52682 25.1992L1.52483 12.7823L0.589793 9.29349C0.383517 8.52153 0.491952 7.69853 0.891614 7.00661C1.29128 6.31469 1.94928 5.80974 2.72104 5.6027L9.63229 3.7499C9.65379 3.74335 9.67555 3.73751 9.69754 3.73241L21.104 0.674515ZM8.61865 6.09227L3.23925 7.5344C3.23919 7.53441 3.2393 7.53438 3.23925 7.5344C2.97954 7.60412 2.75796 7.7741 2.62347 8.00695C2.48898 8.23978 2.4524 8.51647 2.52175 8.77624C2.52173 8.77617 2.52177 8.77632 2.52175 8.77624L3.22983 11.4183L7.77776 10.1994L8.61865 6.09227ZM9.93777 9.62057L10.7787 5.51319L15.8961 4.14129L15.0551 8.24913L9.93777 9.62057ZM17.2151 7.67025L23.5731 5.96631L22.8648 3.32481C22.8304 3.19598 22.7709 3.07519 22.6898 2.96935C22.6087 2.86351 22.5076 2.77468 22.3921 2.70796C22.2767 2.64124 22.1492 2.59792 22.017 2.58049C21.8849 2.56306 21.7506 2.57184 21.6218 2.60633M21.6218 2.60633L18.0562 3.56222L17.2151 7.67025M3.52497 13.6431L3.52682 25.1989C3.52682 25.468 3.63373 25.7263 3.82404 25.9166C4.01434 26.1069 4.27245 26.2138 4.54158 26.2138H23.573C23.8422 26.2138 24.1003 26.1069 24.2906 25.9166C24.4809 25.7263 24.5878 25.4682 24.5878 25.1991V13.6431H3.52497ZM6.81356 22.0923C6.81356 21.54 7.26128 21.0923 7.81356 21.0923H10.3884C10.9407 21.0923 11.3884 21.54 11.3884 22.0923C11.3884 22.6446 10.9407 23.0923 10.3884 23.0923H7.81356C7.26128 23.0923 6.81356 22.6446 6.81356 22.0923Z" fill="white"/>
</svg>
