<svg width="13" height="23" viewBox="0 0 13 23" fill="none" xmlns="http://www.w3.org/2000/svg">
<path d="M12.8438 6.94888C12.8451 5.5773 12.3934 4.24369 11.5589 3.15518C10.7244 2.06667 9.55382 1.2842 8.22896 0.929305C6.90409 0.574412 5.49911 0.666963 4.23225 1.19258C2.96538 1.7182 1.90755 2.64746 1.22307 3.83603C0.987186 4.24481 0.923353 4.73055 1.04561 5.18639C1.16787 5.64223 1.4662 6.03084 1.87498 6.26672C2.28376 6.5026 2.7695 6.56643 3.22534 6.44417C3.68119 6.32191 4.06979 6.02358 4.30567 5.6148C4.54041 5.2093 4.87759 4.87262 5.28343 4.63848C5.68928 4.40434 6.14953 4.28096 6.61807 4.28072C7.32571 4.28072 8.00436 4.56183 8.50474 5.06221C9.00511 5.56258 9.28622 6.24124 9.28622 6.94888C9.28622 7.65651 9.00511 8.33517 8.50474 8.83554C8.00436 9.33592 7.32571 9.61703 6.61807 9.61703H6.61273C6.498 9.62856 6.38476 9.6518 6.27477 9.6864C6.15532 9.69854 6.03736 9.72237 5.92257 9.75755C5.82493 9.81089 5.73261 9.87344 5.64686 9.94432C5.54468 10 5.44818 10.0656 5.3587 10.14C5.27873 10.2356 5.20898 10.3393 5.15059 10.4495C5.08559 10.5296 5.02785 10.6153 4.97804 10.7056C4.93929 10.8283 4.91365 10.9547 4.90156 11.0827C4.87095 11.1849 4.85011 11.2897 4.8393 11.3958V13.1746L4.84286 13.1941V14.0675C4.8438 14.5386 5.03162 14.9902 5.3651 15.323C5.69858 15.6558 6.15048 15.8427 6.62163 15.8427H6.62696C6.86055 15.8422 7.09177 15.7958 7.3074 15.706C7.52303 15.6161 7.71886 15.4847 7.8837 15.3192C8.04854 15.1537 8.17918 14.9574 8.26814 14.7414C8.35709 14.5254 8.40264 14.294 8.40217 14.0604L8.39861 12.8828C9.67873 12.5026 10.8023 11.7201 11.6029 10.6513C12.4036 9.58251 12.8387 8.28427 12.8438 6.94888ZM5.36759 19.0267C5.11782 19.2744 4.94711 19.5907 4.87705 19.9354C4.80699 20.2802 4.84074 20.638 4.97401 20.9635C5.10729 21.2891 5.33411 21.5678 5.6258 21.7645C5.91749 21.9612 6.26094 22.0669 6.61273 22.0684C7.0842 22.0643 7.53617 21.8797 7.87566 21.5526C8.20593 21.2152 8.39089 20.7618 8.39089 20.2896C8.39089 19.8175 8.20593 19.3641 7.87566 19.0267C7.53518 18.7094 7.08706 18.5329 6.62163 18.5329C6.15619 18.5329 5.70807 18.7094 5.36759 19.0267Z" fill="white"/>
</svg>
