<svg width="23" height="23" viewBox="0 0 23 23" fill="none" xmlns="http://www.w3.org/2000/svg">
<path fill-rule="evenodd" clip-rule="evenodd" d="M6.00413 1.37953C7.03904 0.95086 8.14825 0.730225 9.26843 0.730225C10.3886 0.730225 11.4978 0.95086 12.5327 1.37953C13.5676 1.80821 14.508 2.43653 15.3001 3.22861C16.0922 4.0207 16.7205 4.96104 17.1492 5.99595C17.5778 7.03086 17.7985 8.14007 17.7985 9.26025C17.7985 10.3804 17.5778 11.4896 17.1492 12.5246C16.8572 13.2294 16.4726 13.8905 16.0067 14.4906L21.7512 20.2351C22.1676 20.6515 22.1676 21.3266 21.7512 21.743C21.3348 22.1594 20.6597 22.1594 20.2433 21.743L14.4988 15.9985C13.8986 16.4644 13.2376 16.849 12.5327 17.141C11.4978 17.5696 10.3886 17.7903 9.26843 17.7903C8.14825 17.7903 7.03904 17.5696 6.00413 17.141C4.96922 16.7123 4.02888 16.084 3.23679 15.2919C2.4447 14.4998 1.81639 13.5595 1.38771 12.5246C0.959039 11.4896 0.738403 10.3804 0.738403 9.26025C0.738403 8.14007 0.959039 7.03086 1.38771 5.99595C1.81639 4.96104 2.4447 4.0207 3.23679 3.22861C4.02888 2.43653 4.96922 1.80821 6.00413 1.37953ZM9.26843 2.86273C8.4283 2.86273 7.59639 3.02821 6.82021 3.34971C6.04402 3.67122 5.33877 4.14246 4.7447 4.73652C4.15064 5.33059 3.6794 6.03585 3.35789 6.81203C3.03639 7.58821 2.87091 8.42012 2.87091 9.26025C2.87091 10.1004 3.03639 10.9323 3.35789 11.7085C3.6794 12.4847 4.15064 13.1899 4.7447 13.784C5.33877 14.3781 6.04402 14.8493 6.82021 15.1708C7.59639 15.4923 8.4283 15.6578 9.26843 15.6578C10.1086 15.6578 10.9405 15.4923 11.7167 15.1708C12.4928 14.8493 13.1981 14.3781 13.7922 13.784C14.3862 13.1899 14.8575 12.4847 15.179 11.7085C15.5005 10.9323 15.666 10.1004 15.666 9.26025C15.666 8.42012 15.5005 7.58821 15.179 6.81203C14.8575 6.03585 14.3862 5.33059 13.7922 4.73652C13.1981 4.14246 12.4928 3.67122 11.7167 3.34971C10.9405 3.02821 10.1086 2.86273 9.26843 2.86273Z" fill="white"/>
<path fill-rule="evenodd" clip-rule="evenodd" d="M5.90846 1.14856C6.9737 0.707327 8.11542 0.480225 9.26843 0.480225C10.4214 0.480225 11.5632 0.707327 12.6284 1.14856C13.6936 1.5898 14.6615 2.23653 15.4769 3.05184C16.2922 3.86714 16.9389 4.83504 17.3801 5.90028C17.8214 6.96553 18.0485 8.10724 18.0485 9.26025C18.0485 10.4133 17.8214 11.555 17.3801 12.6202C17.1079 13.2775 16.7574 13.8976 16.3374 14.4678L21.928 20.0583C22.442 20.5723 22.442 21.4057 21.928 21.9198C21.4139 22.4338 20.5805 22.4338 20.0665 21.9198L14.476 16.3292C13.9058 16.7493 13.2856 17.0997 12.6284 17.3719C11.5632 17.8132 10.4214 18.0403 9.26843 18.0403C8.11542 18.0403 6.9737 17.8132 5.90846 17.3719C4.84322 16.9307 3.87531 16.284 3.06001 15.4687C2.24471 14.6534 1.59798 13.6855 1.15674 12.6202C0.715506 11.555 0.488403 10.4133 0.488403 9.26025C0.488403 8.10724 0.715506 6.96552 1.15674 5.90028C1.59798 4.83504 2.24471 3.86714 3.06001 3.05184C3.87532 2.23653 4.84322 1.5898 5.90846 1.14856ZM9.26843 0.980225C8.18108 0.980225 7.10438 1.19439 6.0998 1.6105C5.09522 2.02661 4.18244 2.63652 3.41357 3.40539C2.6447 4.17426 2.03479 5.08705 1.61868 6.09162C1.20257 7.0962 0.988403 8.1729 0.988403 9.26025C0.988403 10.3476 1.20257 11.4243 1.61868 12.4289C2.03479 13.4335 2.6447 14.3462 3.41357 15.1151C4.18244 15.884 5.09522 16.4939 6.0998 16.91C7.10438 17.3261 8.18108 17.5403 9.26843 17.5403C10.3558 17.5403 11.4325 17.3261 12.4371 16.91C13.1213 16.6266 13.7629 16.2533 14.3455 15.8011C14.445 15.7238 14.5865 15.7327 14.6756 15.8218L20.42 21.5662C20.7388 21.885 21.2556 21.885 21.5744 21.5662C21.8932 21.2475 21.8932 20.7306 21.5744 20.4119L15.8299 14.6674C15.7409 14.5783 15.732 14.4369 15.8092 14.3373C16.2615 13.7548 16.6348 13.1131 16.9182 12.4289C17.3343 11.4243 17.5485 10.3476 17.5485 9.26025C17.5485 8.1729 17.3343 7.0962 16.9182 6.09162C16.5021 5.08704 15.8922 4.17426 15.1233 3.40539C14.3544 2.63652 13.4416 2.02661 12.4371 1.6105C11.4325 1.19439 10.3558 0.980225 9.26843 0.980225ZM9.26843 3.11273C8.46113 3.11273 7.66173 3.27174 6.91588 3.58068C6.17003 3.88963 5.49233 4.34245 4.92148 4.9133C4.35063 5.48415 3.8978 6.16185 3.58886 6.9077C3.27992 7.65355 3.12091 8.45295 3.12091 9.26025C3.12091 10.0676 3.27992 10.867 3.58886 11.6128C3.8978 12.3587 4.35063 13.0364 4.92148 13.6072C5.49233 14.1781 6.17003 14.6309 6.91588 14.9398C7.66173 15.2488 8.46113 15.4078 9.26843 15.4078C10.0757 15.4078 10.8751 15.2488 11.621 14.9398C12.3668 14.6309 13.0445 14.1781 13.6154 13.6072C14.1862 13.0364 14.6391 12.3587 14.948 11.6128C15.2569 10.867 15.416 10.0676 15.416 9.26025C15.416 8.45295 15.2569 7.65355 14.948 6.9077C14.6391 6.16185 14.1862 5.48415 13.6154 4.9133C13.0445 4.34245 12.3668 3.88963 11.621 3.58068C10.8751 3.27174 10.0757 3.11273 9.26843 3.11273ZM6.72454 3.11874C7.53105 2.78468 8.39547 2.61273 9.26843 2.61273C10.1414 2.61273 11.0058 2.78468 11.8123 3.11874C12.6188 3.45281 13.3517 3.94247 13.9689 4.55975C14.5862 5.17703 15.0759 5.90984 15.4099 6.71636C15.744 7.52287 15.916 8.38729 15.916 9.26025C15.916 10.1332 15.744 10.9976 15.4099 11.8042C15.0759 12.6107 14.5862 13.3435 13.9689 13.9608C13.3517 14.578 12.6188 15.0677 11.8123 15.4018C11.0058 15.7358 10.1414 15.9078 9.26843 15.9078C8.39547 15.9078 7.53105 15.7358 6.72454 15.4018C5.91802 15.0677 5.1852 14.578 4.56792 13.9608C3.95064 13.3435 3.46099 12.6107 3.12692 11.8042C2.79285 10.9976 2.62091 10.1332 2.62091 9.26025C2.62091 8.38729 2.79285 7.52287 3.12692 6.71636C3.46099 5.90984 3.95065 5.17703 4.56792 4.55975C5.1852 3.94247 5.91802 3.45281 6.72454 3.11874Z" fill="white"/>
</svg>
