<svg width="22" height="27" viewBox="0 0 22 27" fill="none" xmlns="http://www.w3.org/2000/svg">
<path fill-rule="evenodd" clip-rule="evenodd" d="M0.936401 4.83912C0.936401 2.3742 3.13492 0.375977 5.84693 0.375977H16.6824C19.3944 0.375977 21.5929 2.3742 21.5929 4.83912V24.097C21.5929 25.9466 19.2595 26.9933 17.6442 25.8683L11.4596 21.5608L4.84431 25.9733C3.22264 27.055 0.936401 26.0025 0.936401 24.1742V4.83912ZM5.84693 1.86369C4.03892 1.86369 2.57324 3.19584 2.57324 4.83912V24.1742C2.57324 24.7836 3.33532 25.1345 3.87588 24.7739L10.986 20.0314C11.2793 19.8358 11.6794 19.8395 11.9681 20.0406L18.6398 24.6874C19.1782 25.0624 19.9561 24.7135 19.9561 24.097V4.83912C19.9561 3.19584 18.4904 1.86369 16.6824 1.86369H5.84693Z" fill="white"/>
<path fill-rule="evenodd" clip-rule="evenodd" d="M0.686401 4.83912C0.686401 2.21419 3.01986 0.125977 5.84693 0.125977H16.6824C19.5094 0.125977 21.8429 2.21419 21.8429 4.83912V24.097C21.8429 25.1383 21.1841 25.9416 20.3266 26.3262C19.4696 26.7106 18.3882 26.6912 17.5013 26.0735L11.4566 21.8634L4.98303 26.1813C4.09301 26.7749 3.02298 26.7812 2.17768 26.3921C1.33185 26.0027 0.686401 25.2035 0.686401 24.1742V4.83912ZM5.84693 0.625977C3.24998 0.625977 1.1864 2.5342 1.1864 4.83912V24.1742C1.1864 24.9732 1.68407 25.6144 2.38677 25.9379C3.09 26.2616 3.97393 26.2533 4.70558 25.7653L11.3209 21.3528C11.4064 21.2958 11.5182 21.2969 11.6025 21.3557L17.7871 25.6632C18.5154 26.1704 19.4084 26.1901 20.122 25.87C20.835 25.5502 21.3429 24.9053 21.3429 24.097V4.83912C21.3429 2.5342 19.2793 0.625977 16.6824 0.625977H5.84693ZM5.84693 2.11369C4.15398 2.11369 2.82324 3.35585 2.82324 4.83912V24.1742C2.82324 24.3638 2.93987 24.5248 3.1264 24.6107C3.31345 24.6968 3.54606 24.6934 3.73715 24.5659L10.8473 19.8234C11.2259 19.5709 11.7377 19.5755 12.1109 19.8355L18.7827 24.4823C18.9726 24.6146 19.2075 24.6212 19.3975 24.5359C19.5871 24.4509 19.7061 24.2888 19.7061 24.097V4.83912C19.7061 3.35585 18.3753 2.11369 16.6824 2.11369H5.84693ZM2.32324 4.83912C2.32324 3.03583 3.92386 1.61369 5.84693 1.61369H16.6824C18.6054 1.61369 20.2061 3.03583 20.2061 4.83912V24.097C20.2061 24.5217 19.9361 24.8423 19.6022 24.9921C19.2687 25.1417 18.8454 25.1353 18.4969 24.8926L11.8252 20.2458C11.621 20.1036 11.3327 20.1007 11.1248 20.2393L4.0146 24.9819C3.66514 25.215 3.24643 25.2164 2.91731 25.0649C2.58766 24.9131 2.32324 24.594 2.32324 24.1742V4.83912Z" fill="white"/>
<path d="M10.7891 6.03031C10.9388 5.56965 11.5905 5.56965 11.7401 6.03031L12.4772 8.2987C12.5441 8.50471 12.7361 8.64419 12.9527 8.64419H15.3378C15.8222 8.64419 16.0236 9.264 15.6317 9.5487L13.7021 10.9506C13.5269 11.078 13.4536 11.3036 13.5205 11.5097L14.2575 13.778C14.4072 14.2387 13.88 14.6218 13.4881 14.3371L11.5585 12.9351C11.3833 12.8078 11.146 12.8078 10.9707 12.9351L9.04112 14.3371C8.64926 14.6218 8.12202 14.2387 8.27169 13.778L9.00874 11.5097C9.07568 11.3036 9.00235 11.078 8.8271 10.9506L6.8975 9.5487C6.50564 9.264 6.70703 8.64419 7.19139 8.64419H9.57651C9.79313 8.64419 9.98511 8.50471 10.052 8.2987L10.7891 6.03031Z" fill="white"/>
</svg>
